<svg id="Icon_ionic-ios-arrow-round-forward" data-name="Icon ionic-ios-arrow-round-forward" xmlns="http://www.w3.org/2000/svg" width="23" height="16" viewBox="0 0 23 16">
  <path id="Icon_ionic-ios-arrow-round-forward-2" data-name="Icon ionic-ios-arrow-round-forward" d="M22.539,11.533a.968.968,0,0,0-.008,1.406l4.856,4.654H8.905a.994.994,0,1,0,0,1.987H27.379l-4.856,4.655a.975.975,0,0,0,.008,1.406,1.067,1.067,0,0,0,1.462-.008l6.581-6.344h0a1.113,1.113,0,0,0,.216-.313.913.913,0,0,0,.08-.382.974.974,0,0,0-.3-.7l-6.581-6.344A1.05,1.05,0,0,0,22.539,11.533Z" transform="translate(-7.875 -11.252)" fill="#575759"/>
</svg>
