<svg xmlns="http://www.w3.org/2000/svg" width="512" height="512" viewBox="0 0 512 512"><g transform="translate(-1302 -120)"><circle cx="256" cy="256" r="256" transform="translate(1302 120)" fill="#009bdb"/><g transform="translate(-7.994 -38.5)"><g transform="translate(1411.801 248.5)"><path d="M249.375,172A59.71,59.71,0,1,0,189.3,112.29,59.894,59.894,0,0,0,249.375,172Zm0,11.582c39.617,0,71.731-31.919,71.731-71.291S288.992,41,249.375,41s-71.734,31.918-71.734,71.29S209.757,183.581,249.375,183.581Z" transform="translate(60.093 54.386)" fill="#fff" fill-rule="evenodd"/><path d="M245.835,84.763A23.912,23.912,0,1,1,221.924,61,23.838,23.838,0,0,1,245.835,84.763Z" transform="translate(87.371 80.916)" fill="#fff"/><path d="M225.373,332.688c92.441,0,167.376-74.476,167.376-166.344S317.814,0,225.373,0A167.482,167.482,0,0,0,76,91.218,160.308,160.308,0,0,1,217.334,6.979c88.488,0,160.219,71.35,160.219,159.365S305.822,325.709,217.334,325.709A160.311,160.311,0,0,1,76,241.469,167.479,167.479,0,0,0,225.373,332.688Z" transform="translate(-76)" fill="#fff" fill-rule="evenodd"/></g><path d="M74.16,63.008,16.508,171.85h115.3Zm4.307-17.235a4.875,4.875,0,0,0-8.614,0L.573,176.569a4.869,4.869,0,0,0,4.307,7.147H143.44a4.87,4.87,0,0,0,4.307-7.147Z" transform="translate(1337.994 301.024)" fill="#fff" fill-rule="evenodd"/></g></g></svg>