<svg id="logo" xmlns="http://www.w3.org/2000/svg" width="121.996" height="60" viewBox="0 0 121.996 60">
  <path id="Caminho_1" data-name="Caminho 1" d="M71.765,65.9H83.326v2.628H68.531V44.15h3.234Z" transform="translate(-39.777 -25.625)" fill="#009bdb"/>
  <path id="Caminho_2" data-name="Caminho 2" d="M121.461,58.664h-5.73v9.86H112.5V44.15h8.076a9.53,9.53,0,0,1,6.334,1.875,6.732,6.732,0,0,1,2.228,5.458,6.528,6.528,0,0,1-1.24,3.968,7.3,7.3,0,0,1-3.418,2.528l5.73,10.346v.2h-3.451Zm-5.73-2.628h4.943a5.551,5.551,0,0,0,3.8-1.239,4.173,4.173,0,0,0,1.424-3.315,4.392,4.392,0,0,0-1.357-3.465,5.688,5.688,0,0,0-3.887-1.222h-4.926Z" transform="translate(-65.295 -25.625)" fill="#009bdb"/>
  <path id="Caminho_3" data-name="Caminho 3" d="M166.709,68.524h-3.217V44.15h3.217Z" transform="translate(-94.894 -25.625)" fill="#009bdb"/>
  <path id="Caminho_4" data-name="Caminho 4" d="M264.822,68.524h-3.234L249.307,49.741V68.524h-3.234V44.15h3.234l12.315,18.867V44.15h3.2Z" transform="translate(-142.826 -25.625)" fill="#009bdb"/>
  <path id="Caminho_5" data-name="Caminho 5" d="M13.055,46.672,2.906,65.832H23.2Zm.758-3.034a.858.858,0,0,0-1.516,0L.1,66.662a.857.857,0,0,0,.758,1.258H25.251a.857.857,0,0,0,.758-1.258Z" transform="translate(0 -25.063)" fill="#009bdb" fill-rule="evenodd"/>
  <path id="Caminho_6" data-name="Caminho 6" d="M190.509,64.626a10.768,10.768,0,1,0-10.777-10.768A10.773,10.773,0,0,0,190.509,64.626Zm0,2.089a12.857,12.857,0,1,0-12.868-12.857A12.862,12.862,0,0,0,190.509,66.714Z" transform="translate(-103.106 -23.797)" fill="#575759" fill-rule="evenodd"/>
  <path id="Caminho_7" data-name="Caminho 7" d="M206.592,65.286A4.289,4.289,0,1,1,202.3,61,4.288,4.288,0,0,1,206.592,65.286Z" transform="translate(-114.931 -35.406)" fill="#85def2"/>
  <path id="Caminho_8" data-name="Caminho 8" d="M102.8,60A30,30,0,1,0,76,16.451a28.741,28.741,0,1,1,0,27.1A30.026,30.026,0,0,0,102.8,60Z" transform="translate(-44.112)" fill="#85def2" fill-rule="evenodd"/>
  <path id="Caminho_9" data-name="Caminho 9" d="M129.834,108.987v1.282h-.671l-.06-.665h-1.291v4.566l.651.111v.5h-2.09v-.5l.652-.111V109.6h-1.295l-.056.665H125v-1.282Z" transform="translate(-72.552 -63.258)" fill="#575759"/>
  <path id="Caminho_10" data-name="Caminho 10" d="M138.748,116.816a1.835,1.835,0,0,1-1.438-.6,2.264,2.264,0,0,1-.532-1.557v-.175a2.2,2.2,0,0,1,.548-1.529,1.7,1.7,0,0,1,1.3-.613,1.635,1.635,0,0,1,1.318.526,2.077,2.077,0,0,1,.451,1.4v.49h-2.8l-.012.02a1.708,1.708,0,0,0,.316,1.023,1.009,1.009,0,0,0,.851.4,2,2,0,0,0,.7-.112,1.635,1.635,0,0,0,.523-.314l.308.509a1.907,1.907,0,0,1-.615.378A2.466,2.466,0,0,1,138.748,116.816Zm-.12-3.853a.852.852,0,0,0-.675.334,1.557,1.557,0,0,0-.344.832l.008.02h1.993v-.1a1.2,1.2,0,0,0-.248-.772A.885.885,0,0,0,138.628,112.962Z" transform="translate(-79.389 -65.207)" fill="#575759"/>
  <path id="Caminho_11" data-name="Caminho 11" d="M149.209,116.2a1.062,1.062,0,0,0,.687-.239.738.738,0,0,0,.3-.593h.707l.008.024a1.21,1.21,0,0,1-.5.991,1.82,1.82,0,0,1-1.2.43,1.753,1.753,0,0,1-1.442-.613,2.373,2.373,0,0,1-.5-1.541v-.167a2.347,2.347,0,0,1,.5-1.533,1.743,1.743,0,0,1,1.438-.617,2.4,2.4,0,0,1,.931.171,1.881,1.881,0,0,1,.687.47l.036.955h-.627l-.172-.677a1.043,1.043,0,0,0-.36-.219,1.384,1.384,0,0,0-.5-.083.952.952,0,0,0-.887.446,2.086,2.086,0,0,0-.264,1.087v.167a2.12,2.12,0,0,0,.264,1.1A.952.952,0,0,0,149.209,116.2Z" transform="translate(-85.479 -65.207)" fill="#575759"/>
  <path id="Caminho_12" data-name="Caminho 12" d="M157.517,113.708l.651-.111v-4.98l-.651-.112V108h1.438v2.476a1.579,1.579,0,0,1,.547-.482,1.514,1.514,0,0,1,.719-.171,1.4,1.4,0,0,1,1.079.414,1.824,1.824,0,0,1,.383,1.274V113.6l.651.111v.5h-2.09v-.5l.651-.111V111.5a1.143,1.143,0,0,0-.232-.788.87.87,0,0,0-.683-.255,1.162,1.162,0,0,0-.592.155,1.278,1.278,0,0,0-.435.414V113.6l.651.111v.5h-2.09Z" transform="translate(-91.426 -62.685)" fill="#575759"/>
</svg>
