<svg xmlns="http://www.w3.org/2000/svg" width="41" height="27.667" viewBox="0 0 41 27.667">
  <g id="Grupo_29" data-name="Grupo 29" transform="translate(0.5 0.5)">
    <path id="Icon_awesome-video" data-name="Icon awesome-video" d="M23.347,4.5H3.319A3.319,3.319,0,0,0,0,7.819V27.847a3.319,3.319,0,0,0,3.319,3.319H23.347a3.319,3.319,0,0,0,3.319-3.319V7.819A3.319,3.319,0,0,0,23.347,4.5ZM36.5,7.118l-7.611,5.25V23.3L36.5,28.542A2.227,2.227,0,0,0,40,26.75V8.91A2.228,2.228,0,0,0,36.5,7.118Z" transform="translate(0 -4.5)" fill="none" stroke="#009bdb" stroke-linejoin="round" stroke-width="1"/>
  </g>
</svg>
