<svg xmlns="http://www.w3.org/2000/svg" width="36" height="41" viewBox="0 0 36 41">
  <g id="Grupo_33" data-name="Grupo 33" transform="translate(0.5 0.5)">
    <path id="Icon_awesome-database" data-name="Icon awesome-database" d="M35,5.714V9.286C35,12.433,27.161,15,17.5,15S0,12.433,0,9.286V5.714C0,2.567,7.839,0,17.5,0S35,2.567,35,5.714Zm0,8.036v8.036c0,3.147-7.839,5.714-17.5,5.714S0,24.933,0,21.786V13.75c3.76,2.589,10.641,3.795,17.5,3.795S31.24,16.339,35,13.75Zm0,12.5v8.036C35,37.433,27.161,40,17.5,40S0,37.433,0,34.286V26.25c3.76,2.589,10.641,3.795,17.5,3.795S31.24,28.839,35,26.25Z" transform="translate(0 0)" fill="none" stroke="#009bdb" stroke-linejoin="round" stroke-width="1"/>
  </g>
</svg>
