<svg xmlns="http://www.w3.org/2000/svg" width="41" height="41.008" viewBox="0 0 41 41.008">
  <g id="Grupo_31" data-name="Grupo 31" transform="translate(0.5 0.5)">
    <path id="Icon_awesome-globe" data-name="Icon awesome-globe" d="M27.143,12.823C25.973,5.62,23.214.563,20,.563S14.035,5.62,12.865,12.823ZM12.261,20.567a50.558,50.558,0,0,0,.266,5.162H27.473a50.559,50.559,0,0,0,.266-5.162,50.559,50.559,0,0,0-.266-5.162H12.527A50.558,50.558,0,0,0,12.261,20.567Zm26.191-7.743A20.046,20.046,0,0,0,25.707,1.4c1.968,2.726,3.323,6.832,4.033,11.422ZM14.293,1.4A20.033,20.033,0,0,0,1.557,12.823h8.711c.7-4.59,2.057-8.7,4.025-11.422Zm25.021,14H30.063c.169,1.694.266,3.428.266,5.162s-.1,3.468-.266,5.162h9.244A19.831,19.831,0,0,0,40,20.567,20.178,20.178,0,0,0,39.314,15.4ZM9.679,20.567c0-1.734.1-3.468.266-5.162H.694a19.556,19.556,0,0,0,0,10.325H9.937C9.776,24.035,9.679,22.3,9.679,20.567Zm3.186,7.743c1.17,7.2,3.928,12.261,7.139,12.261s5.969-5.057,7.139-12.261ZM25.715,39.732A20.065,20.065,0,0,0,38.459,28.31H29.748c-.71,4.59-2.065,8.7-4.033,11.422ZM1.557,28.31A20.046,20.046,0,0,0,14.3,39.732c-1.968-2.726-3.323-6.832-4.033-11.422H1.557Z" transform="translate(0 -0.563)" fill="none" stroke="#009bdb" stroke-linejoin="round" stroke-width="1"/>
  </g>
</svg>
