<svg xmlns="http://www.w3.org/2000/svg" width="41" height="39.949" viewBox="0 0 41 39.949">
  <path id="Icon_awesome-network-wired" data-name="Icon awesome-network-wired" d="M40,20.083V18.866a1.124,1.124,0,0,0-1-1.217H21.5V14.606H26a2.25,2.25,0,0,0,2-2.434V2.434A2.25,2.25,0,0,0,26,0H14a2.25,2.25,0,0,0-2,2.434v9.737a2.25,2.25,0,0,0,2,2.434h4.5v3.043H1a1.124,1.124,0,0,0-1,1.217v1.217A1.124,1.124,0,0,0,1,21.3H7.5v3.043H4a2.25,2.25,0,0,0-2,2.434v9.737a2.25,2.25,0,0,0,2,2.434H14a2.25,2.25,0,0,0,2-2.434V26.777a2.25,2.25,0,0,0-2-2.434H10.5V21.3h19v3.043H26a2.25,2.25,0,0,0-2,2.434v9.737a2.25,2.25,0,0,0,2,2.434H36a2.25,2.25,0,0,0,2-2.434V26.777a2.25,2.25,0,0,0-2-2.434H32.5V21.3H39A1.124,1.124,0,0,0,40,20.083ZM16,9.737V4.869h8V9.737ZM12,34.08H6V29.212h6Zm22,0H28V29.212h6Z" transform="translate(0.5 0.5)" fill="none" stroke="#009bdb" stroke-linecap="round" stroke-linejoin="round" stroke-width="1"/>
</svg>
